<svg xmlns="http://www.w3.org/2000/svg" version="1.1" xmlns:xlink="http://www.w3.org/1999/xlink" xmlns:svgjs="http://svgjs.dev/svgjs" width="1000" height="1000" viewBox="0 0 1000 1000"><rect width="1000" height="1000" fill="#ffffff"></rect><g transform="matrix(0.7,0,0,0.7,149.57575757575756,282.1265587044535)"><svg viewBox="0 0 396 247" data-background-color="#535353" preserveAspectRatio="xMidYMid meet" height="623" width="1000" xmlns="http://www.w3.org/2000/svg" xmlns:xlink="http://www.w3.org/1999/xlink"><g id="tight-bounds" transform="matrix(1,0,0,1,0.2400000000000091,-0.09999999999999432)"><svg viewBox="0 0 395.52 247.2" height="247.2" width="395.52"><g><svg></svg></g><g><svg viewBox="0 0 395.52 247.2" height="247.2" width="395.52"><mask id="2a384003-ec0d-4863-9622-322ad5f01825"><rect width="640" height="400" fill="white"></rect><rect width="348.05760000000004" height="89.73110556547883" fill="black" y="78.73444721726058" x="23.731199999999973" id="transform-me"></rect></mask><g transform="matrix(1,0,0,1,39.55199999999999,93.12383124654286)"><svg viewBox="0 0 316.416 60.95233750691425" height="60.95233750691425" width="316.416"><g><svg viewBox="0 0 316.416 60.95233750691425" height="60.95233750691425" width="316.416"><g><svg viewBox="0 0 316.416 60.95233750691425" height="60.95233750691425" width="316.416"><g id="textblocktransform"><svg viewBox="0 0 316.416 60.95233750691425" height="60.95233750691425" width="316.416" id="textblock"><g><svg viewBox="0 0 316.416 60.95233750691425" height="60.95233750691425" width="316.416"><g transform="matrix(1,0,0,1,0,0)"><svg width="316.416" viewBox="2.95 -35.5 186.86333333333 36" height="60.95233750691425" data-palette-color="#ffffff"><path d="M16.8 0L16.8 0 16.8-34.4Q16.8-34.7 16.9-34.83 17-34.95 17.48-34.98 17.95-35 19.05-35L19.05-35 19.05-0.6Q19.05-0.3 18.98-0.18 18.9-0.05 18.43-0.03 17.95 0 16.8 0ZM2.95 0L2.95 0 2.95-34.4Q2.95-34.7 3.05-34.83 3.15-34.95 3.63-34.98 4.1-35 5.2-35L5.2-35 5.2-0.6Q5.2-0.3 5.13-0.18 5.05-0.05 4.58-0.03 4.1 0 2.95 0ZM17.9-18L4.2-18 4.2-20.2 17.9-20.2 17.9-18ZM23.85 0.05L23.85 0.05Q23.65 0.05 23.27 0.05 22.9 0.05 22.45 0L22.45 0 32.05-34.9Q32.1-35.2 32.8-35.2L32.8-35.2Q33.05-35.2 33.32-35.18 33.6-35.15 33.75-35.1L33.75-35.1 43.4-0.6Q43.5-0.25 43.32-0.1 43.15 0.05 42.5 0.05L42.5 0.05Q42.25 0.05 41.9 0.05 41.55 0.05 41.1 0L41.1 0 35.2-22.1Q34.65-24.2 34.17-26.15 33.7-28.1 33.35-29.65 33-31.2 32.95-31.95L32.95-31.95Q32.85-31.2 32.52-29.65 32.2-28.1 31.72-26.15 31.25-24.2 30.65-22.1L30.65-22.1 25-0.45Q24.9-0.15 24.67-0.05 24.45 0.05 23.85 0.05ZM39.65-9.95L26.95-9.95 26.95-12.1 39.65-12.1 39.65-9.95ZM52.8 0L46.8 0 46.8-34.15Q46.8-34.55 47.05-34.77 47.3-35 48.05-35L48.05-35 53.05-35Q54.45-35 55.92-34.7 57.39-34.4 58.62-33.6 59.84-32.8 60.62-31.33 61.39-29.85 61.39-27.4L61.39-27.4Q61.39-24.4 60.57-22.7 59.74-21 58.59-20.23 57.45-19.45 56.39-19.3L56.39-19.3Q57.2-19.3 58.22-18.98 59.24-18.65 60.22-17.88 61.2-17.1 61.82-15.68 62.45-14.25 62.45-11.95L62.45-11.95Q62.45-8.8 61.8-6.65 61.14-4.5 60.05-3.2 58.95-1.9 57.64-1.2 56.34-0.5 55.09-0.25 53.84 0 52.8 0L52.8 0ZM49.05-18.05L49.05-2.05 52.8-2.05Q54.14-2.05 55.42-2.5 56.7-2.95 57.72-4.05 58.74-5.15 59.34-7.03 59.95-8.9 59.95-11.75L59.95-11.75Q59.95-14 59.39-15.25 58.84-16.5 57.87-17.13 56.89-17.75 55.59-17.9 54.3-18.05 52.8-18.05L52.8-18.05 49.05-18.05ZM49.05-32.95L49.05-20.1 53.3-20.1Q54.89-20.1 56.17-20.73 57.45-21.35 58.22-22.9 58.99-24.45 58.99-27.1L58.99-27.1Q58.99-29.5 58.12-30.75 57.24-32 55.87-32.48 54.49-32.95 52.99-32.95L52.99-32.95 49.05-32.95ZM66.69 0L66.69 0 66.69-33.8Q66.69-34.4 66.79-34.65 66.89-34.9 67.39-34.95 67.89-35 68.99-35L68.99-35 68.99-0.6Q68.99-0.3 68.89-0.18 68.79-0.05 68.32-0.03 67.84 0 66.69 0ZM79.84 0L79.84 0 79.84-34.25Q79.84-34.25 79.92-34.43 79.99-34.6 80.44-34.6L80.44-34.6 81.49-34.6Q81.94-34.6 82.02-34.43 82.09-34.25 82.09-34.25L82.09-34.25 82.09-0.6Q82.09-0.3 81.99-0.18 81.89-0.05 81.42-0.03 80.94 0 79.84 0ZM89.24-32.85L72.24-32.85 72.24-34.4Q72.24-35 72.89-35L72.89-35 89.89-35 89.89-33.45Q89.89-33.15 89.74-33 89.59-32.85 89.24-32.85L89.24-32.85ZM107.49 0.5L107.49 0.5Q103.99 0.5 102.44-0.43 100.89-1.35 100.89-2.05L100.89-2.05Q100.89-2.45 101.06-2.88 101.24-3.3 101.64-3.65L101.64-3.65Q102.44-2.9 103.76-2.35 105.09-1.8 107.39-1.8L107.39-1.8Q110.79-1.8 112.29-3.63 113.79-5.45 113.79-8.3L113.79-8.3Q113.79-10.55 112.99-12.33 112.19-14.1 110.09-16.25L110.09-16.25 104.54-21.85Q102.84-23.7 101.94-25.33 101.04-26.95 101.04-28.9L101.04-28.9Q101.04-31.8 103.21-33.65 105.39-35.5 109.29-35.5L109.29-35.5Q112.59-35.5 114.06-34.8 115.54-34.1 115.54-33.4L115.54-33.4Q115.54-33.05 115.36-32.68 115.19-32.3 114.89-32L114.89-32Q114.29-32.5 112.86-32.98 111.44-33.45 109.34-33.45L109.34-33.45Q106.69-33.45 105.04-32.2 103.39-30.95 103.39-28.95L103.39-28.95Q103.39-27.35 104.21-26.05 105.04-24.75 106.29-23.4L106.29-23.4 112.44-17.25Q114.59-15 115.36-13.03 116.14-11.05 116.14-8.55L116.14-8.55Q116.14-5.95 115.26-3.9 114.39-1.85 112.49-0.68 110.59 0.5 107.49 0.5ZM124.53 0L124.53 0 124.53-34.25Q124.53-34.25 124.61-34.43 124.68-34.6 125.13-34.6L125.13-34.6 126.18-34.6Q126.63-34.6 126.71-34.43 126.78-34.25 126.78-34.25L126.78-34.25 126.78-0.6Q126.78-0.3 126.68-0.18 126.58-0.05 126.11-0.03 125.63 0 124.53 0ZM133.93-32.85L116.93-32.85 116.93-34.4Q116.93-35 117.58-35L117.58-35 134.58-35 134.58-33.45Q134.58-33.15 134.43-33 134.28-32.85 133.93-32.85L133.93-32.85ZM134.08 0.05L134.08 0.05Q133.88 0.05 133.51 0.05 133.13 0.05 132.68 0L132.68 0 142.28-34.9Q142.33-35.2 143.03-35.2L143.03-35.2Q143.28-35.2 143.56-35.18 143.83-35.15 143.98-35.1L143.98-35.1 153.63-0.6Q153.73-0.25 153.56-0.1 153.38 0.05 152.73 0.05L152.73 0.05Q152.48 0.05 152.13 0.05 151.78 0.05 151.33 0L151.33 0 145.43-22.1Q144.88-24.2 144.41-26.15 143.93-28.1 143.58-29.65 143.23-31.2 143.18-31.95L143.18-31.95Q143.08-31.2 142.76-29.65 142.43-28.1 141.96-26.15 141.48-24.2 140.88-22.1L140.88-22.1 135.23-0.45Q135.13-0.15 134.91-0.05 134.68 0.05 134.08 0.05ZM149.88-9.95L137.18-9.95 137.18-12.1 149.88-12.1 149.88-9.95ZM163.78 0.45L163.78 0.45Q162.63 0.45 161.48 0.23 160.33 0 159.25-0.85 158.18-1.7 157.33-3.45 156.48-5.2 155.98-8.18 155.48-11.15 155.48-15.75L155.48-15.75Q155.48-21.1 156.05-24.68 156.63-28.25 157.6-30.4 158.58-32.55 159.83-33.65 161.08-34.75 162.45-35.1 163.83-35.45 165.13-35.45L165.13-35.45Q166.73-35.45 167.75-35.05 168.78-34.65 169.28-34.08 169.78-33.5 169.78-33L169.78-33Q169.78-32.6 169.65-32.2 169.53-31.8 169.33-31.6L169.33-31.6Q169.13-31.8 168.58-32.18 168.03-32.55 167.2-32.9 166.38-33.25 165.38-33.25L165.38-33.25Q164.28-33.25 163.2-32.93 162.13-32.6 161.18-31.6 160.23-30.6 159.48-28.68 158.73-26.75 158.3-23.58 157.88-20.4 157.88-15.65L157.88-15.65Q157.88-11.2 158.4-8.47 158.93-5.75 159.83-4.35 160.73-2.95 161.85-2.48 162.98-2 164.13-2L164.13-2Q165.93-2 167.43-2.83 168.93-3.65 169.58-4.45L169.58-4.45Q169.73-4.15 169.88-3.78 170.03-3.4 170.03-2.95L170.03-2.95Q170.03-2.3 169.2-1.48 168.38-0.65 166.98-0.1 165.58 0.45 163.78 0.45ZM188.93 0.05L188.93 0.05Q188.58 0.05 188.23 0.05 187.88 0.05 187.48 0L187.48 0Q186.33-3.7 185.25-6.35 184.18-9 183.18-10.9 182.18-12.8 181.18-14.15 180.18-15.5 179.13-16.55L179.13-16.55Q178.43-17.3 177.6-17.73 176.78-18.15 175.93-18.4L175.93-18.4 175.93-19 187.33-34.9Q187.73-35 188.08-35 188.43-35 188.78-35L188.78-35Q190.18-35 189.58-34.1L189.58-34.1 178.78-19.7Q182.03-17.8 184.85-13.18 187.68-8.55 189.78-0.75L189.78-0.75Q189.88-0.3 189.68-0.13 189.48 0.05 188.93 0.05ZM174.23 0L174.23 0 174.23-34.4Q174.23-34.7 174.33-34.83 174.43-34.95 174.9-34.98 175.38-35 176.53-35L176.53-35 176.53-0.6Q176.53-0.3 176.43-0.18 176.33-0.05 175.85-0.03 175.38 0 174.23 0Z" opacity="1" transform="matrix(1,0,0,1,0,0)" fill="#000000" class="wordmark-text-0" data-fill-palette-color="primary" id="text-0"></path></svg></g></svg></g></svg></g></svg></g></svg></g></svg></g><g mask="url(#2a384003-ec0d-4863-9622-322ad5f01825)"><g transform="matrix(2.7244444444444444, 0, 0, 2.7244444444444444, 130.32999999999998, 1)"><svg xmlns="http://www.w3.org/2000/svg" xmlns:xlink="http://www.w3.org/1999/xlink" version="1.1" x="0" y="0" viewBox="25.7 5.2 49.5 90" enable-background="new 0 0 100 100" xml:space="preserve" height="90" width="49.5" class="icon-none" data-fill-palette-color="accent" id="none"><g fill="#54f291" data-fill-palette-color="accent"><polygon points="25.7,82.7 49.6,95.2 49.6,70.4 25.7,57.9  " fill="#000000" data-fill-palette-color="accent"></polygon><polygon points="51.2,95.2 75.2,82.7 75.2,57.9 51.2,70.4  " fill="#000000" data-fill-palette-color="accent"></polygon><path d="M74.2 56.6l-10.1-5.3-13.4 7c-0.1 0.1-0.2 0.1-0.4 0.1s-0.3 0-0.4-0.1l-13.4-7-10.1 5.3 0 0L50.4 69l0 0 0 0 16.5-8.6L74.2 56.6z" fill="#000000" data-fill-palette-color="accent"></path><polygon points="49.6,56.2 49.6,31.5 25.7,19 25.7,43.7  " fill="#000000" data-fill-palette-color="accent"></polygon><polygon points="51.2,31.5 51.2,56.2 75.2,43.7 75.2,19  " fill="#000000" data-fill-palette-color="accent"></polygon><polygon points="50.4,30.1 50.4,30.1 65.7,22.1 74.2,17.6 50.4,5.2 26.6,17.6 26.6,17.6 50.4,30.1  " fill="#000000" data-fill-palette-color="accent"></polygon></g></svg></g></g></svg></g><defs></defs></svg><rect width="395.52" height="247.2" fill="none" stroke="none" visibility="hidden"></rect></g></svg></g></svg>